<mxfile host="app.diagrams.net" modified="2021-06-11T11:02:56.479Z" agent="5.0 (Windows NT 10.0; Win64; x64) AppleWebKit/537.36 (KHTML, like Gecko) Chrome/91.0.4472.77 Safari/537.36" etag="CtCU8xESl2jSgCjEdSeB" version="14.7.6" type="github">
  <diagram id="kKO7TiGZ6TJaH3jzx4V3" name="Page-1">
    <mxGraphModel dx="1422" dy="762" grid="1" gridSize="10" guides="1" tooltips="1" connect="1" arrows="1" fold="1" page="1" pageScale="1" pageWidth="827" pageHeight="1169" background="none" math="0" shadow="0">
      <root>
        <mxCell id="0" />
        <mxCell id="1" parent="0" />
        <mxCell id="g4I816DOP6BQ48P8k_7J-1" value="" style="fontColor=#0066CC;verticalAlign=top;verticalLabelPosition=bottom;labelPosition=center;align=center;html=1;outlineConnect=0;fillColor=#CCCCCC;strokeColor=#6881B3;gradientColor=none;gradientDirection=north;strokeWidth=2;shape=mxgraph.networks.pc;" parent="1" vertex="1">
          <mxGeometry x="60" y="210" width="80" height="60" as="geometry" />
        </mxCell>
        <mxCell id="oYWyHarPu2jq-PYJLw7N-4" style="edgeStyle=orthogonalEdgeStyle;orthogonalLoop=1;jettySize=auto;html=1;exitX=0.88;exitY=0.5;exitDx=0;exitDy=0;exitPerimeter=0;" edge="1" parent="1" source="g4I816DOP6BQ48P8k_7J-2" target="g4I816DOP6BQ48P8k_7J-4">
          <mxGeometry relative="1" as="geometry" />
        </mxCell>
        <mxCell id="g4I816DOP6BQ48P8k_7J-2" value="" style="fontColor=#0066CC;verticalAlign=top;verticalLabelPosition=bottom;labelPosition=center;align=center;html=1;outlineConnect=0;fillColor=#CCCCCC;strokeColor=#6881B3;gradientColor=none;gradientDirection=north;strokeWidth=2;shape=mxgraph.networks.proxy_server;" parent="1" vertex="1">
          <mxGeometry x="65" y="390" width="70" height="70" as="geometry" />
        </mxCell>
        <mxCell id="g4I816DOP6BQ48P8k_7J-3" value="&amp;nbsp;Linux" style="fontColor=#0066CC;verticalAlign=top;verticalLabelPosition=bottom;labelPosition=center;align=center;html=1;outlineConnect=0;fillColor=#CCCCCC;strokeColor=#6881B3;gradientColor=none;gradientDirection=north;strokeWidth=2;shape=mxgraph.networks.server;" parent="1" vertex="1">
          <mxGeometry x="70" y="500" width="60" height="65" as="geometry" />
        </mxCell>
        <mxCell id="oYWyHarPu2jq-PYJLw7N-5" style="edgeStyle=orthogonalEdgeStyle;orthogonalLoop=1;jettySize=auto;html=1;exitX=1;exitY=0.5;exitDx=0;exitDy=0;exitPerimeter=0;entryX=0;entryY=0.5;entryDx=0;entryDy=0;entryPerimeter=0;" edge="1" parent="1" source="g4I816DOP6BQ48P8k_7J-4" target="g4I816DOP6BQ48P8k_7J-11">
          <mxGeometry relative="1" as="geometry" />
        </mxCell>
        <mxCell id="g4I816DOP6BQ48P8k_7J-4" value="Сбор" style="fontColor=#0066CC;verticalAlign=top;verticalLabelPosition=bottom;labelPosition=center;align=center;html=1;outlineConnect=0;fillColor=#CCCCCC;strokeColor=#6881B3;gradientColor=none;gradientDirection=north;strokeWidth=2;shape=mxgraph.networks.server;" parent="1" vertex="1">
          <mxGeometry x="240" y="340" width="60" height="70" as="geometry" />
        </mxCell>
        <mxCell id="g4I816DOP6BQ48P8k_7J-8" value="" style="fontColor=#0066CC;verticalAlign=top;verticalLabelPosition=bottom;labelPosition=center;align=center;html=1;outlineConnect=0;fillColor=#CCCCCC;strokeColor=#6881B3;gradientColor=none;gradientDirection=north;strokeWidth=2;shape=mxgraph.networks.desktop_pc;" parent="1" vertex="1">
          <mxGeometry x="310" y="700" width="30" height="60" as="geometry" />
        </mxCell>
        <mxCell id="g4I816DOP6BQ48P8k_7J-10" value="" style="fontColor=#0066CC;verticalAlign=top;verticalLabelPosition=bottom;labelPosition=center;align=center;html=1;outlineConnect=0;fillColor=#CCCCCC;strokeColor=#6881B3;gradientColor=none;gradientDirection=north;strokeWidth=2;shape=mxgraph.networks.firewall;" parent="1" vertex="1">
          <mxGeometry x="70" y="300" width="60" height="60" as="geometry" />
        </mxCell>
        <mxCell id="oYWyHarPu2jq-PYJLw7N-6" style="edgeStyle=orthogonalEdgeStyle;orthogonalLoop=1;jettySize=auto;html=1;exitX=1;exitY=0.5;exitDx=0;exitDy=0;exitPerimeter=0;entryX=0;entryY=0.5;entryDx=0;entryDy=0;entryPerimeter=0;" edge="1" parent="1" source="g4I816DOP6BQ48P8k_7J-11" target="g4I816DOP6BQ48P8k_7J-12">
          <mxGeometry relative="1" as="geometry" />
        </mxCell>
        <mxCell id="g4I816DOP6BQ48P8k_7J-11" value="&lt;font style=&quot;vertical-align: inherit&quot;&gt;&lt;font style=&quot;vertical-align: inherit&quot;&gt;обогащение&lt;/font&gt;&lt;/font&gt;" style="fontColor=#0066CC;verticalAlign=top;verticalLabelPosition=bottom;labelPosition=center;align=center;html=1;outlineConnect=0;fillColor=#CCCCCC;strokeColor=#6881B3;gradientColor=none;gradientDirection=north;strokeWidth=2;shape=mxgraph.networks.server;" parent="1" vertex="1">
          <mxGeometry x="384" y="340" width="60" height="70" as="geometry" />
        </mxCell>
        <mxCell id="g4I816DOP6BQ48P8k_7J-12" value="&lt;font style=&quot;vertical-align: inherit&quot;&gt;&lt;font style=&quot;vertical-align: inherit&quot;&gt;профайлер&lt;/font&gt;&lt;/font&gt;" style="fontColor=#0066CC;verticalAlign=top;verticalLabelPosition=bottom;labelPosition=center;align=center;html=1;outlineConnect=0;fillColor=#CCCCCC;strokeColor=#6881B3;gradientColor=none;gradientDirection=north;strokeWidth=2;shape=mxgraph.networks.server;" parent="1" vertex="1">
          <mxGeometry x="520" y="340" width="60" height="70" as="geometry" />
        </mxCell>
        <mxCell id="g4I816DOP6BQ48P8k_7J-13" value="&lt;font style=&quot;vertical-align: inherit&quot;&gt;&lt;font style=&quot;vertical-align: inherit&quot;&gt;&lt;font style=&quot;vertical-align: inherit&quot;&gt;&lt;font style=&quot;vertical-align: inherit&quot;&gt;Hbase&lt;/font&gt;&lt;/font&gt;&lt;/font&gt;&lt;/font&gt;" style="fontColor=#0066CC;verticalAlign=top;verticalLabelPosition=bottom;labelPosition=center;align=center;html=1;outlineConnect=0;fillColor=#CCCCCC;strokeColor=#6881B3;gradientColor=none;gradientDirection=north;strokeWidth=2;shape=mxgraph.networks.server_storage;" parent="1" vertex="1">
          <mxGeometry x="384" y="470" width="70" height="70" as="geometry" />
        </mxCell>
        <mxCell id="oYWyHarPu2jq-PYJLw7N-18" style="edgeStyle=orthogonalEdgeStyle;rounded=0;orthogonalLoop=1;jettySize=auto;html=1;exitX=0.5;exitY=1;exitDx=0;exitDy=0;entryX=0.53;entryY=0;entryDx=0;entryDy=0;entryPerimeter=0;shadow=1;" edge="1" parent="1" target="oYWyHarPu2jq-PYJLw7N-8">
          <mxGeometry relative="1" as="geometry">
            <mxPoint x="893.5" y="130" as="sourcePoint" />
          </mxGeometry>
        </mxCell>
        <mxCell id="oYWyHarPu2jq-PYJLw7N-19" style="edgeStyle=orthogonalEdgeStyle;rounded=0;orthogonalLoop=1;jettySize=auto;html=1;exitX=0.5;exitY=1;exitDx=0;exitDy=0;entryX=0.5;entryY=0;entryDx=0;entryDy=0;entryPerimeter=0;shadow=1;" edge="1" parent="1" source="oYWyHarPu2jq-PYJLw7N-8" target="oYWyHarPu2jq-PYJLw7N-10">
          <mxGeometry relative="1" as="geometry" />
        </mxCell>
        <mxCell id="oYWyHarPu2jq-PYJLw7N-8" value="Получение нового события&amp;nbsp;&amp;nbsp;" style="shape=parallelogram;perimeter=parallelogramPerimeter;whiteSpace=wrap;html=1;fixedSize=1;shadow=1;" vertex="1" parent="1">
          <mxGeometry x="771.75" y="170" width="230.5" height="60" as="geometry" />
        </mxCell>
        <mxCell id="oYWyHarPu2jq-PYJLw7N-9" value="" style="shape=parallelogram;perimeter=parallelogramPerimeter;whiteSpace=wrap;html=1;fixedSize=1;" vertex="1" parent="1">
          <mxGeometry x="400" y="70" width="120" height="60" as="geometry" />
        </mxCell>
        <mxCell id="oYWyHarPu2jq-PYJLw7N-11" style="edgeStyle=orthogonalEdgeStyle;orthogonalLoop=1;jettySize=auto;html=1;exitX=0;exitY=0.5;exitDx=0;exitDy=0;entryX=0.5;entryY=0;entryDx=0;entryDy=0;shadow=1;" edge="1" parent="1" source="oYWyHarPu2jq-PYJLw7N-10" target="oYWyHarPu2jq-PYJLw7N-17">
          <mxGeometry relative="1" as="geometry">
            <mxPoint x="710" y="580" as="targetPoint" />
          </mxGeometry>
        </mxCell>
        <mxCell id="oYWyHarPu2jq-PYJLw7N-15" style="orthogonalLoop=1;jettySize=auto;html=1;exitX=1;exitY=0.5;exitDx=0;exitDy=0;entryX=0.5;entryY=0;entryDx=0;entryDy=0;shadow=1;edgeStyle=orthogonalEdgeStyle;endSize=6;" edge="1" parent="1" source="oYWyHarPu2jq-PYJLw7N-10" target="oYWyHarPu2jq-PYJLw7N-14">
          <mxGeometry relative="1" as="geometry" />
        </mxCell>
        <mxCell id="oYWyHarPu2jq-PYJLw7N-10" value="Код события&lt;br&gt;&amp;nbsp;соответствует одному из кодов событий&amp;nbsp;&lt;br&gt;связанных с вводом пароля?" style="rhombus;whiteSpace=wrap;html=1;shadow=1;" vertex="1" parent="1">
          <mxGeometry x="748.77" y="260" width="276.47" height="125" as="geometry" />
        </mxCell>
        <mxCell id="oYWyHarPu2jq-PYJLw7N-12" value="нет" style="text;html=1;align=center;verticalAlign=middle;resizable=0;points=[];autosize=1;strokeColor=none;shadow=1;" vertex="1" parent="1">
          <mxGeometry x="715" y="280" width="30" height="20" as="geometry" />
        </mxCell>
        <mxCell id="oYWyHarPu2jq-PYJLw7N-14" value="Создаем идентификаторы&amp;nbsp;" style="whiteSpace=wrap;html=1;shadow=1;" vertex="1" parent="1">
          <mxGeometry x="940" y="395" width="230" height="60" as="geometry" />
        </mxCell>
        <mxCell id="oYWyHarPu2jq-PYJLw7N-16" value="да" style="text;html=1;align=center;verticalAlign=middle;resizable=0;points=[];autosize=1;strokeColor=none;shadow=1;" vertex="1" parent="1">
          <mxGeometry x="1020" y="280" width="30" height="20" as="geometry" />
        </mxCell>
        <mxCell id="oYWyHarPu2jq-PYJLw7N-17" value="&lt;span style=&quot;font-size: 11px ; background-color: rgb(255 , 255 , 255)&quot;&gt;пропускаем событие&amp;nbsp;&lt;/span&gt;" style="whiteSpace=wrap;html=1;shadow=1;" vertex="1" parent="1">
          <mxGeometry x="660" y="430" width="120" height="60" as="geometry" />
        </mxCell>
        <mxCell id="oYWyHarPu2jq-PYJLw7N-21" value="&lt;span&gt;Код события&lt;/span&gt;&lt;br&gt;&lt;span&gt;&amp;nbsp;соответствует неуспешному&amp;nbsp;&lt;br&gt;вводу пароля?&lt;br&gt;&lt;/span&gt;" style="rhombus;whiteSpace=wrap;html=1;shadow=1;fillColor=#ffffff;gradientColor=none;" vertex="1" parent="1">
          <mxGeometry x="932.5" y="479" width="245" height="107" as="geometry" />
        </mxCell>
        <mxCell id="oYWyHarPu2jq-PYJLw7N-22" value="&lt;span style=&quot;background-color: rgb(255 , 255 , 255)&quot;&gt;Начало&amp;nbsp;&lt;/span&gt;" style="rounded=1;whiteSpace=wrap;html=1;shadow=1;fillColor=#ffffff;gradientColor=none;arcSize=50;" vertex="1" parent="1">
          <mxGeometry x="780" y="70" width="233" height="60" as="geometry" />
        </mxCell>
      </root>
    </mxGraphModel>
  </diagram>
</mxfile>
